<svg width="24" height="24" viewBox="0 0 24 24" fill="none" xmlns="http://www.w3.org/2000/svg">
  <path d="M13.2 17.3h1.5s.5-.1.7-.3c.2-.2.2-.7.2-.7s0-2 .9-2.3c.9-.3 2.1 1.9 3.3 2.8.9.6 1.6.5 1.6.5l3.3-.1s1.7-.1.9-1.5c-.1-.2-.5-.9-2.3-2.6-1.9-1.8-1.6-1.5.6-4.6 1.4-1.9 2-3.1 1.8-3.6-.2-.5-1.3-.4-1.3-.4l-3.7.1s-.3 0-.5.1c-.2.1-.3.4-.3.4s-.6 1.6-1.4 3c-1.7 2.9-2.4 3-2.7 2.8-.6-.4-.5-1.6-.5-2.5 0-2.7.4-3.8-.8-4.1-.4-.1-.7-.2-1.7-.2-1.3 0-2.4 0-3 .3-.4.2-.7.6-.5.7.2 0 .7.1 1 .5.4.5.4 1.6.4 1.6s.2 3.2-.5 3.6c-.5.3-1.2-.3-2.7-2.9-.8-1.3-1.3-2.8-1.3-2.8s-.1-.3-.3-.5c-.2-.2-.6-.2-.6-.2l-3.5.1s-.5 0-.7.2c-.2.2 0 .6 0 .6s2.7 6.4 5.8 9.6c2.8 3 6 2.8 6 2.8z" fill="currentColor"/>
</svg>
